# xmcd CD database file
#
# Track frame offsets:
#	150
#	17885
#	34195
#	46290
#	62565
#	75075
#	96725
#	122730
#	134160
#	149345
#	163720
#	178630
#
# Disc length: 2731 seconds
#
# Revision: 0
# Processed by: cddbd v1.5.2PL0 Copyright (c) Steve Scherf et al.
# Submitted via: CDex 1.70beta2
#
DISCID=a70aa90c
DTITLE=Pete Jolly - Jolly Jumps In
DYEAR=1955
DGENRE=Jazz
TTITLE0=Will You Still Be Mine?
TTITLE1=El Yorke
TTITLE2=Jolly Jumps In
TTITLE3=I've Got You Under My Skin
TTITLE4=I'm With You
TTITLE5=Pete's Meat
TTITLE6=It Might as Well Be Spring
TTITLE7=Why Do I Love You?
TTITLE8=That'a All
TTITLE9=Jolly Lodger
TTITLE10=Before and After
TTITLE11=I Get a Kick Out of You
EXTD=YEAR: 1955
EXTT0=
EXTT1=
EXTT2=
EXTT3=
EXTT4=
EXTT5=
EXTT6=
EXTT7=
EXTT8=
EXTT9=
EXTT10=
EXTT11=
PLAYORDER=
